<svg width="28" height="28" viewBox="0 0 28 28" fill="none" xmlns="http://www.w3.org/2000/svg">
<g id="Group 35429">
<path id="Path 23" d="M5.83192 23.9393L22.6809 16.0203C22.7953 15.9685 22.8877 15.8781 22.9423 15.765C22.9968 15.652 23.01 15.5233 22.9794 15.4015C22.9488 15.2797 22.8764 15.1725 22.7749 15.0987C22.6734 15.0248 22.5491 14.9889 22.4238 14.9973H8.09987C7.97954 14.9951 7.86157 15.0312 7.76295 15.1001C7.66433 15.1691 7.59017 15.2675 7.55092 15.3813L5.02492 23.3013C4.99748 23.4068 5.00133 23.518 5.03602 23.6214C5.07072 23.7248 5.13468 23.8159 5.22023 23.8835C5.30577 23.9511 5.40912 23.9925 5.51771 24.0024C5.62631 24.0123 5.73556 23.9903 5.83192 23.9393Z" fill="#999999"/>
<path id="Path 14214" d="M5.83192 4.05756L22.6809 11.9766C22.7953 12.0284 22.8877 12.1187 22.9423 12.2318C22.9968 12.3449 23.01 12.4736 22.9794 12.5953C22.9488 12.7171 22.8764 12.8243 22.7749 12.8982C22.6734 12.9721 22.5491 13.0079 22.4238 12.9996H8.09987C7.97954 13.0017 7.86157 12.9657 7.76295 12.8967C7.66433 12.8278 7.59017 12.7293 7.55092 12.6155L5.02492 4.69556C4.99748 4.59002 5.00133 4.47875 5.03602 4.37537C5.07072 4.27199 5.13468 4.18097 5.22023 4.11334C5.30577 4.04571 5.40912 4.00441 5.51771 3.99451C5.62631 3.98461 5.73556 4.00651 5.83192 4.05756Z" fill="#999999"/>
</g>
</svg>
