<svg width="24" height="4" viewBox="0 0 24 4" fill="none" xmlns="http://www.w3.org/2000/svg">
<path d="M2 4C3.10457 4 4 3.10457 4 2C4 0.89543 3.10457 0 2 0C0.89543 0 0 0.89543 0 2C0 3.10457 0.89543 4 2 4Z" fill="#111111"/>
<path d="M12 4C13.1046 4 14 3.10457 14 2C14 0.89543 13.1046 0 12 0C10.8954 0 10 0.89543 10 2C10 3.10457 10.8954 4 12 4Z" fill="#111111"/>
<path d="M22 4C23.1046 4 24 3.10457 24 2C24 0.89543 23.1046 0 22 0C20.8954 0 20 0.89543 20 2C20 3.10457 20.8954 4 22 4Z" fill="#111111"/>
</svg>
