<svg width="28" height="28" viewBox="0 0 28 28" fill="none" xmlns="http://www.w3.org/2000/svg">
<path d="M10.9375 6.125C9.42676 6.125 8.00061 6.71887 6.92224 7.79719C5.84387 8.87556 5.25 10.3015 5.25 11.8125C5.25 13.4884 5.97119 15.0645 7.22986 16.1423L12.25 20.0469V17.5H17.0625C18.5732 17.5 19.9994 16.9061 21.0778 15.8278C22.1561 14.7494 22.75 13.3235 22.75 11.8125C22.75 10.3015 22.1561 8.87556 21.0778 7.79719C19.9994 6.71887 18.5732 6.125 17.0625 6.125H10.9375ZM10.9375 4.375H17.0625C21.153 4.375 24.5 7.72189 24.5 11.8125C24.5 15.9031 21.153 19.25 17.0625 19.25H14V23.625L6.125 17.5C4.50958 16.1332 3.5 14.0814 3.5 11.8125C3.5 7.72189 6.84705 4.375 10.9375 4.375Z" fill="black"/>
</svg>
