<svg width="18" height="18" viewBox="0 0 18 18" fill="none" xmlns="http://www.w3.org/2000/svg">
<g id="Path 15203">
<path id="Vector" d="M9 1.5C4.86456 1.5 1.5 4.86447 1.5 9C1.5 10.3068 1.84827 11.5999 2.5069 12.7396L2.81799 13.2778L2.12146 15.8786L4.72119 15.182L5.25934 15.4929C6.39972 16.1517 7.69336 16.5 9 16.5C13.1354 16.5 16.5 13.1355 16.5 9C16.5 4.86447 13.1354 1.5 9 1.5ZM9 0C13.9702 0 18 4.02974 18 9C18 13.9703 13.9702 18 9 18C7.36267 18 5.83191 17.556 4.50897 16.7917L0 18L1.20831 13.4902C0.444031 12.168 0 10.6372 0 9C0 4.02974 4.02979 0 9 0Z" fill="black"/>
</g>
</svg>
