<svg width="16" height="15" viewBox="0 0 16 15" fill="none" xmlns="http://www.w3.org/2000/svg">
<path d="M8 14.5C11.866 14.5 15 11.366 15 7.5C15 3.63401 11.866 0.5 8 0.5C4.13401 0.5 1 3.63401 1 7.5C1 11.366 4.13401 14.5 8 14.5Z" stroke="black" stroke-linecap="round" stroke-linejoin="round"/>
<path d="M7.61537 8.484L7.44737 5.532L7.40737 4.42H8.59137L8.55137 5.532L8.38337 8.484H7.61537ZM7.99937 10.612C7.58337 10.612 7.27137 10.276 7.27137 9.844C7.27137 9.404 7.58337 9.076 7.99937 9.076C8.41537 9.076 8.73537 9.404 8.73537 9.844C8.73537 10.276 8.41537 10.612 7.99937 10.612Z" fill="black"/>
</svg>
