<svg width="16" height="16" viewBox="0 0 16 16" fill="none" xmlns="http://www.w3.org/2000/svg">
<path d="M8 14.9497C11.866 14.9497 15 11.8157 15 7.94971C15 4.08371 11.866 0.949707 8 0.949707C4.13401 0.949707 1 4.08371 1 7.94971C1 11.8157 4.13401 14.9497 8 14.9497Z" stroke="#767676" stroke-linecap="round" stroke-linejoin="round"/>
<path d="M7.61555 8.93371L7.44755 5.98171L7.40755 4.86971H8.59155L8.55155 5.98171L8.38355 8.93371H7.61555ZM7.99955 11.0617C7.58355 11.0617 7.27155 10.7257 7.27155 10.2937C7.27155 9.85371 7.58355 9.52571 7.99955 9.52571C8.41555 9.52571 8.73555 9.85371 8.73555 10.2937C8.73555 10.7257 8.41555 11.0617 7.99955 11.0617Z" fill="#767676"/>
</svg>
