<svg width="28" height="28" viewBox="0 0 28 28" fill="none" xmlns="http://www.w3.org/2000/svg">
<path d="M3.50004 12.6675H5.83337C5.92542 12.6675 6.00004 12.7421 6.00004 12.8341V23.3341C6.00004 23.4262 5.92542 23.5008 5.83337 23.5008H3.50004C3.40799 23.5008 3.33337 23.4262 3.33337 23.3341V12.8341C3.33337 12.7421 3.40799 12.6675 3.50004 12.6675Z" fill="#111111" stroke="black" stroke-width="2"/>
<path d="M23.1711 13.1332H23.1837L23.1906 13.133L23.2004 13.1331C23.2132 13.1332 23.2366 13.1337 23.2686 13.1353C23.3333 13.1386 23.4294 13.1465 23.5426 13.1646C23.7802 13.2026 24.0375 13.277 24.2419 13.4029C24.4275 13.5171 24.5578 13.6635 24.6217 13.8906C24.6918 14.1393 24.7154 14.6058 24.4286 15.4088L24.4283 15.4095C23.7594 17.2865 22.3454 20.2482 21.6942 21.6122C21.6746 21.6533 21.6556 21.693 21.6374 21.7311L21.6374 21.731L21.6321 21.7425C21.3093 22.4414 20.7317 22.9905 20.0176 23.2775C19.651 23.4209 19.261 23.4955 18.8673 23.4975L10.8559 23.4975L10.8504 23.4975C10.714 23.4982 10.5828 23.445 10.4854 23.3493C10.3892 23.2547 10.3338 23.1261 10.3312 22.9911V13.6614C10.3989 12.5489 10.8384 11.4911 11.5796 10.6583L11.6165 10.6167L11.6486 10.5714L13.3297 8.19722L13.33 8.19679L15.5654 5.03631L15.57 5.02981L15.5745 5.02324C15.7335 4.79058 15.9671 4.61904 16.2365 4.53673C16.4455 4.48579 16.6645 4.49168 16.8707 4.55393C17.0818 4.61765 17.2714 4.73808 17.419 4.90225L17.4447 4.93083L17.4725 4.95736C17.9207 5.38482 18.0612 5.98036 17.9801 6.7138C17.8981 7.45607 17.5975 8.19437 17.3567 8.66145L17.3565 8.66189C17.204 8.95794 16.9547 9.41285 16.6895 9.88627L16.6895 9.88625L16.6849 9.89454C16.5011 10.2301 16.4084 10.6079 16.4163 10.9906C16.4242 11.3728 16.532 11.7467 16.7296 12.0746C16.9272 12.4025 17.2073 12.6727 17.5417 12.8583C17.8736 13.0426 18.2478 13.1374 18.6275 13.1332H23.1711Z" fill="#111111" stroke="black" stroke-width="2"/>
</svg>
