<svg width="28" height="28" viewBox="0 0 28 28" fill="none" xmlns="http://www.w3.org/2000/svg">
<path d="M4 24.0008V20.333L19.8598 4.47308C19.9302 4.40279 20.0255 4.36328 20.125 4.36328C20.2245 4.36328 20.3198 4.40279 20.3902 4.47308L23.5277 7.61072C23.5982 7.68121 23.6377 7.77664 23.6377 7.87584C23.6377 7.97502 23.5982 8.07043 23.5278 8.14092C23.5278 8.14093 23.5278 8.14095 23.5277 8.14097L7.66789 24.0008H4Z" stroke="#E5E5EC"/>
<path d="M20.4786 5.6219L20.125 5.26831L19.7714 5.62189L4.89645 20.4969L4.75 20.6433V20.8505V22.7506V23.2506H5.25H7.14996H7.35707L7.50352 23.1041L22.3785 8.22914L22.7321 7.87561L22.3785 7.52205L20.4786 5.6219ZM20.125 4.36328C20.2219 4.36328 20.317 4.39979 20.3904 4.47304L23.5278 7.61051L23.5279 7.61058C23.6739 7.75655 23.6739 7.99463 23.5279 8.1406L23.5278 8.14066L7.66789 24.0006H4V20.3327L19.8599 4.47277L19.8601 4.4726C19.9326 4.40003 20.0278 4.36328 20.125 4.36328Z" fill="black" stroke="#E5E5EC"/>
<path d="M4.375 23.625H24.5" stroke="#E5E5EC" stroke-width="2" stroke-miterlimit="10"/>
<path d="M16.625 7L21 11.375" stroke="#E5E5EC" stroke-width="2" stroke-miterlimit="10"/>
</svg>
