<svg width="28" height="28" viewBox="0 0 28 28" fill="none" xmlns="http://www.w3.org/2000/svg">
<g id="Group 35429">
<path id="Path 23" d="M5.83192 23.9398L22.6809 16.0208C22.7953 15.9689 22.8877 15.8786 22.9423 15.7655C22.9968 15.6524 23.01 15.5238 22.9794 15.402C22.9488 15.2802 22.8764 15.173 22.7749 15.0992C22.6734 15.0253 22.5491 14.9894 22.4238 14.9978H8.09987C7.97954 14.9956 7.86157 15.0316 7.76295 15.1006C7.66433 15.1696 7.59017 15.268 7.55092 15.3817L5.02492 23.3018C4.99748 23.4073 5.00133 23.5185 5.03602 23.6219C5.07072 23.7253 5.13468 23.8164 5.22023 23.884C5.30577 23.9516 5.40912 23.9929 5.51771 24.0028C5.62631 24.0127 5.73556 23.9908 5.83192 23.9398Z" fill="#FFBB00"/>
<path id="Path 14214" d="M5.83192 4.05805L22.6809 11.9771C22.7953 12.0289 22.8877 12.1192 22.9423 12.2323C22.9968 12.3454 23.01 12.474 22.9794 12.5958C22.9488 12.7176 22.8764 12.8248 22.7749 12.8987C22.6734 12.9726 22.5491 13.0084 22.4238 13.0001H8.09987C7.97954 13.0022 7.86157 12.9662 7.76295 12.8972C7.66433 12.8282 7.59017 12.7298 7.55092 12.616L5.02492 4.69605C4.99748 4.5905 5.00133 4.47924 5.03602 4.37586C5.07072 4.27247 5.13468 4.18146 5.22023 4.11383C5.30577 4.0462 5.40912 4.0049 5.51771 3.995C5.62631 3.9851 5.73556 4.007 5.83192 4.05805Z" fill="#FFBB00"/>
</g>
</svg>
